# xmcd CD database file
# Copyright (C) 1997 Ti Kan
# 
# Track frame offsets:
#     150
#     17588
#     30955
#     46523
#     59363
#     71963
#     81260
#     95780
#     106980
#     120255
#     137735
#     149260
# 
# Disc length: 2188 seconds
# 
# Revision: 1
# Processed by: cddbd v1.4b41PL1 Copyright (c) Steve Scherf et al.
# Submitted via: DiscPlay 4.0.4
# 
DISCID=9b088a0c
DTITLE=Vassar Clements, Others - HILLBILLY JAZZ RIDES AGAIN
DYEAR=1900
DGENRE=
TTITLE0=HILLBILLY JAZZ
TTITLE1=DON'T HOP, DON'T SKIP
TTITLE2=AIRMAIL SPECIAL
TTITLE3=SAY GOODBYE TO THE BLUES
TTITLE4=SWING STREET
TTITLE5=WOODSHEDDIN'
TTITLE6=BE A LITTLE DISCREET
TTITLE7=YOUR MIND IS ON VACATION
TTITLE8=CARAVAN
TTITLE9=HOW CAN I GO ON WITHOUT YOU
TTITLE10=TRIPLE STOP BOOGIE
TTITLE11=TAKE A BREAK
EXTD=
EXTT0=
EXTT1=
EXTT2=
EXTT3=
EXTT4=
EXTT5=
EXTT6=
EXTT7=
EXTT8=
EXTT9=
EXTT10=
EXTT11=
PLAYORDER=
